<?xml version="1.0" encoding="utf-8"?>
<!-- Generator: Adobe Illustrator 18.1.1, SVG Export Plug-In . SVG Version: 6.00 Build 0)  -->
<svg version="1.1" id="Layer_1" xmlns="http://www.w3.org/2000/svg" xmlns:xlink="http://www.w3.org/1999/xlink" x="0px" y="0px"
	 viewBox="0 0 86 81" enable-background="new 0 0 86 81" xml:space="preserve">
<g>
	<g>
		<defs>
			<path id="SVGID_50_" d="M240.4,0.8c-0.2-0.2-0.2-0.6,0-0.8l8.5-8.5c0.2-0.2,0.3-0.6,0.3-0.8c0-0.2-0.1-0.6-0.3-0.8l-1.6-1.6
				c-0.2-0.2-0.6-0.3-0.8-0.3c-0.3,0-0.6,0.1-0.8,0.3l-8.5,8.5c-0.2,0.2-0.6,0.2-0.8,0l-8.5-8.5c-0.2-0.2-0.6-0.3-0.8-0.3
				c-0.2,0-0.6,0.1-0.8,0.3l-1.6,1.6c-0.2,0.2-0.3,0.6-0.3,0.8c0,0.2,0.1,0.6,0.3,0.8l8.5,8.5c0.2,0.2,0.2,0.6,0,0.8l-8.5,8.5
				c-0.2,0.2-0.3,0.6-0.3,0.8c0,0.2,0.1,0.6,0.3,0.8l1.6,1.6c0.2,0.2,0.6,0.3,0.8,0.3c0.2,0,0.6-0.1,0.8-0.3l8.5-8.5
				c0.2-0.2,0.6-0.2,0.8,0l8.5,8.5c0.2,0.2,0.6,0.3,0.8,0.3c0.2,0,0.6-0.1,0.8-0.3l1.6-1.6c0.2-0.2,0.3-0.6,0.3-0.8
				c0-0.2-0.1-0.6-0.3-0.8L240.4,0.8z"/>
		</defs>
		<clipPath id="SVGID_2_">
			<use xlink:href="#SVGID_50_"  overflow="visible"/>
		</clipPath>
		<g clip-path="url(#SVGID_2_)">
			<defs>
				<rect id="SVGID_52_" x="-89.7" y="-587" width="375" height="667"/>
			</defs>
			<clipPath id="SVGID_4_">
				<use xlink:href="#SVGID_52_"  overflow="visible"/>
			</clipPath>
		</g>
	</g>
</g>
<g>
	
		<linearGradient id="SVGID_6_" gradientUnits="userSpaceOnUse" x1="19.0333" y1="131.3099" x2="49.2413" y2="131.3099" gradientTransform="matrix(1 0 0 1 0 -90)">
		<stop  offset="0" style="stop-color:#F7D310"/>
		<stop  offset="1" style="stop-color:#E9AE23"/>
	</linearGradient>
	<path fill="url(#SVGID_6_)" d="M48.1,32.5H19.7h-0.3c-0.3,0-0.5,0.4-0.3,0.7l17,16.9l13.1-17.5H48.1z"/>
	<path fill="#F7D310" d="M66.6,31H50c-0.6,0-1.2,0.3-1.6,0.8l-0.3,0.4L41,42.8c-4.5,5.4-9.3,2.9-9.3,2.9l4.4,4.4l0,0l30.6-18.4
		C67.1,31.5,67,31,66.6,31z"/>
</g>
</svg>
